<svg width="960" height="760" viewBox="0 0 960 760" fill="none" xmlns="http://www.w3.org/2000/svg" role="img" aria-labelledby="title desc">
  <title id="title">VESTRO PRINTLAB hero image placeholder</title>
  <desc id="desc">Placeholder hero artwork showing a custom jersey preview. Replace with a final rendered or photographed hero image.</desc>
  <rect width="960" height="760" rx="40" fill="#0F172A"/>
  <rect x="40" y="40" width="880" height="680" rx="34" fill="#111827"/>
  <path d="M156 190L284 132L360 204C399 242 460 242 500 204L576 132L704 190L652 328L604 308V614H256V308L208 328L156 190Z" fill="#312E81"/>
  <path d="M284 132L360 204C399 242 460 242 500 204L576 132L548 250C532 319 470 368 400 368C330 368 268 319 252 250L284 132Z" fill="#4338CA"/>
  <path d="M256 308L604 308V614H256V308Z" fill="#4F46E5"/>
  <path d="M300 346H560V568H300V346Z" fill="#EEF2FF" fill-opacity="0.08"/>
  <text x="361" y="446" fill="white" font-family="Arial, Helvetica, sans-serif" font-size="72" font-weight="800" letter-spacing="2">V</text>
  <text x="432" y="446" fill="#A78BFA" font-family="Arial, Helvetica, sans-serif" font-size="72" font-weight="800" letter-spacing="2">AI</text>
  <path d="M688 420C755 420 810 475 810 542C810 609 755 664 688 664C621 664 566 609 566 542C566 475 621 420 688 420Z" fill="#1E1B4B"/>
  <path d="M648 543L681 576L736 511" stroke="#38BDF8" stroke-width="22" stroke-linecap="round" stroke-linejoin="round"/>
  <circle cx="706" cy="126" r="54" fill="#7C3AED" fill-opacity="0.55"/>
  <circle cx="183" cy="586" r="70" fill="#38BDF8" fill-opacity="0.14"/>
  <path d="M116 120H226" stroke="#818CF8" stroke-width="14" stroke-linecap="round"/>
  <path d="M744 220H844" stroke="#A78BFA" stroke-width="14" stroke-linecap="round"/>
  <path d="M104 666H352" stroke="#312E81" stroke-width="18" stroke-linecap="round"/>
</svg>